<svg width="312" height="244" viewBox="0 0 312 244" fill="none" xmlns="http://www.w3.org/2000/svg">
<path d="M140 8L140 236" stroke="#4C9EEB"/>
<path d="M12.3031 7.67969H9.42031L9.40469 6.46875H12.0219C12.4542 6.46875 12.8318 6.39583 13.1547 6.25C13.4776 6.10417 13.7276 5.89583 13.9047 5.625C14.087 5.34896 14.1781 5.02083 14.1781 4.64062C14.1781 4.22396 14.0974 3.88542 13.9359 3.625C13.7797 3.35938 13.5375 3.16667 13.2094 3.04688C12.8865 2.92188 12.475 2.85938 11.975 2.85938H9.75625V13H8.24844V1.625H11.975C12.5583 1.625 13.0792 1.6849 13.5375 1.80469C13.9958 1.91927 14.3839 2.10156 14.7016 2.35156C15.0245 2.59635 15.2693 2.90885 15.4359 3.28906C15.6026 3.66927 15.6859 4.125 15.6859 4.65625C15.6859 5.125 15.5661 5.54948 15.3266 5.92969C15.087 6.30469 14.7536 6.61198 14.3266 6.85156C13.9047 7.09115 13.4099 7.24479 12.8422 7.3125L12.3031 7.67969ZM12.2328 13H8.82656L9.67812 11.7734H12.2328C12.712 11.7734 13.1182 11.6901 13.4516 11.5234C13.7901 11.3568 14.0479 11.1224 14.225 10.8203C14.4021 10.513 14.4906 10.151 14.4906 9.73438C14.4906 9.3125 14.4151 8.94792 14.2641 8.64062C14.113 8.33333 13.876 8.09635 13.5531 7.92969C13.2302 7.76302 12.8135 7.67969 12.3031 7.67969H10.1547L10.1703 6.46875H13.1078L13.4281 6.90625C13.975 6.95312 14.4385 7.10938 14.8187 7.375C15.199 7.63542 15.488 7.96875 15.6859 8.375C15.8891 8.78125 15.9906 9.22917 15.9906 9.71875C15.9906 10.4271 15.8344 11.026 15.5219 11.5156C15.2146 12 14.7797 12.3698 14.2172 12.625C13.6547 12.875 12.9932 13 12.2328 13ZM22.8703 11.0469V4.54688H24.3234V13H22.9406L22.8703 11.0469ZM23.1437 9.26562L23.7453 9.25C23.7453 9.8125 23.6854 10.3333 23.5656 10.8125C23.451 11.2865 23.2635 11.6979 23.0031 12.0469C22.7427 12.3958 22.4016 12.6693 21.9797 12.8672C21.5578 13.0599 21.0448 13.1562 20.4406 13.1562C20.0292 13.1562 19.6516 13.0964 19.3078 12.9766C18.9693 12.8568 18.6776 12.6719 18.4328 12.4219C18.188 12.1719 17.9979 11.8464 17.8625 11.4453C17.7323 11.0443 17.6672 10.5625 17.6672 10V4.54688H19.1125V10.0156C19.1125 10.3958 19.1542 10.7109 19.2375 10.9609C19.326 11.2057 19.4432 11.401 19.5891 11.5469C19.7401 11.6875 19.9068 11.7865 20.0891 11.8438C20.2766 11.901 20.4693 11.9297 20.6672 11.9297C21.2818 11.9297 21.7687 11.8125 22.1281 11.5781C22.4875 11.3385 22.7453 11.0182 22.9016 10.6172C23.063 10.2109 23.1437 9.76042 23.1437 9.26562ZM31.1484 10.7578C31.1484 10.5495 31.1016 10.3568 31.0078 10.1797C30.9193 9.9974 30.7344 9.83333 30.4531 9.6875C30.1771 9.53646 29.7604 9.40625 29.2031 9.29688C28.7344 9.19792 28.3099 9.08073 27.9297 8.94531C27.5547 8.8099 27.2344 8.64583 26.9687 8.45312C26.7083 8.26042 26.5078 8.03385 26.3672 7.77344C26.2266 7.51302 26.1562 7.20833 26.1562 6.85938C26.1562 6.52604 26.2292 6.21094 26.375 5.91406C26.526 5.61719 26.737 5.35417 27.0078 5.125C27.2839 4.89583 27.6146 4.71615 28 4.58594C28.3854 4.45573 28.8151 4.39062 29.2891 4.39062C29.9661 4.39062 30.5443 4.51042 31.0234 4.75C31.5026 4.98958 31.8698 5.3099 32.125 5.71094C32.3802 6.10677 32.5078 6.54688 32.5078 7.03125H31.0625C31.0625 6.79688 30.9922 6.57031 30.8516 6.35156C30.7161 6.1276 30.5156 5.94271 30.25 5.79688C29.9896 5.65104 29.6693 5.57812 29.2891 5.57812C28.888 5.57812 28.5625 5.64062 28.3125 5.76562C28.0677 5.88542 27.888 6.03906 27.7734 6.22656C27.6641 6.41406 27.6094 6.61198 27.6094 6.82031C27.6094 6.97656 27.6354 7.11719 27.6875 7.24219C27.7448 7.36198 27.8437 7.47396 27.9844 7.57812C28.125 7.67708 28.3229 7.77083 28.5781 7.85938C28.8333 7.94792 29.1589 8.03646 29.5547 8.125C30.2474 8.28125 30.8177 8.46875 31.2656 8.6875C31.7135 8.90625 32.0469 9.17448 32.2656 9.49219C32.4844 9.8099 32.5937 10.1953 32.5937 10.6484C32.5937 11.0182 32.5156 11.3568 32.3594 11.6641C32.2083 11.9714 31.987 12.237 31.6953 12.4609C31.4089 12.6797 31.0651 12.8516 30.6641 12.9766C30.2682 13.0964 29.8229 13.1562 29.3281 13.1562C28.5833 13.1562 27.9531 13.0234 27.4375 12.7578C26.9219 12.4922 26.5312 12.1484 26.2656 11.7266C26 11.3047 25.8672 10.8594 25.8672 10.3906H27.3203C27.3411 10.7865 27.4557 11.1016 27.6641 11.3359C27.8724 11.5651 28.1276 11.7292 28.4297 11.8281C28.7318 11.9219 29.0312 11.9688 29.3281 11.9688C29.724 11.9688 30.0547 11.9167 30.3203 11.8125C30.5911 11.7083 30.7969 11.5651 30.9375 11.3828C31.0781 11.2005 31.1484 10.9922 31.1484 10.7578ZM35.7625 4.54688V13H34.3094V4.54688H35.7625ZM34.2 2.30469C34.2 2.07031 34.2703 1.8724 34.4109 1.71094C34.5568 1.54948 34.7703 1.46875 35.0516 1.46875C35.3276 1.46875 35.5385 1.54948 35.6844 1.71094C35.8354 1.8724 35.9109 2.07031 35.9109 2.30469C35.9109 2.52865 35.8354 2.72135 35.6844 2.88281C35.5385 3.03906 35.3276 3.11719 35.0516 3.11719C34.7703 3.11719 34.5568 3.03906 34.4109 2.88281C34.2703 2.72135 34.2 2.52865 34.2 2.30469ZM39.2281 6.35156V13H37.7828V4.54688H39.15L39.2281 6.35156ZM38.8844 8.45312L38.2828 8.42969C38.288 7.85156 38.374 7.31771 38.5406 6.82812C38.7073 6.33333 38.9417 5.90365 39.2437 5.53906C39.5458 5.17448 39.9052 4.89323 40.3219 4.69531C40.7437 4.49219 41.2099 4.39062 41.7203 4.39062C42.137 4.39062 42.512 4.44792 42.8453 4.5625C43.1786 4.67188 43.4625 4.84896 43.6969 5.09375C43.9365 5.33854 44.1187 5.65625 44.2437 6.04688C44.3687 6.43229 44.4312 6.90365 44.4312 7.46094V13H42.9781V7.44531C42.9781 7.0026 42.913 6.64844 42.7828 6.38281C42.6526 6.11198 42.4625 5.91667 42.2125 5.79688C41.9625 5.67188 41.6552 5.60938 41.2906 5.60938C40.9312 5.60938 40.6031 5.6849 40.3062 5.83594C40.0146 5.98698 39.762 6.19531 39.5484 6.46094C39.3401 6.72656 39.176 7.03125 39.0562 7.375C38.9417 7.71354 38.8844 8.07292 38.8844 8.45312ZM49.8344 13.1562C49.2458 13.1562 48.712 13.0573 48.2328 12.8594C47.7589 12.6562 47.35 12.3724 47.0062 12.0078C46.6677 11.6432 46.4073 11.2109 46.225 10.7109C46.0427 10.2109 45.9516 9.66406 45.9516 9.07031V8.74219C45.9516 8.05469 46.0531 7.44271 46.2562 6.90625C46.4594 6.36458 46.7354 5.90625 47.0844 5.53125C47.4333 5.15625 47.8292 4.8724 48.2719 4.67969C48.7146 4.48698 49.1729 4.39062 49.6469 4.39062C50.251 4.39062 50.7719 4.49479 51.2094 4.70312C51.6521 4.91146 52.0141 5.20312 52.2953 5.57812C52.5766 5.94792 52.7849 6.38542 52.9203 6.89062C53.0557 7.39062 53.1234 7.9375 53.1234 8.53125V9.17969H46.8109V8H51.6781V7.89062C51.6573 7.51562 51.5792 7.15104 51.4437 6.79688C51.3135 6.44271 51.1052 6.15104 50.8187 5.92188C50.5323 5.69271 50.1417 5.57812 49.6469 5.57812C49.3187 5.57812 49.0167 5.64844 48.7406 5.78906C48.4646 5.92448 48.2276 6.1276 48.0297 6.39844C47.8318 6.66927 47.6781 7 47.5687 7.39062C47.4594 7.78125 47.4047 8.23177 47.4047 8.74219V9.07031C47.4047 9.47135 47.4594 9.84896 47.5687 10.2031C47.6833 10.5521 47.8474 10.8594 48.0609 11.125C48.2797 11.3906 48.5427 11.599 48.85 11.75C49.1625 11.901 49.5167 11.9766 49.9125 11.9766C50.4229 11.9766 50.8552 11.8724 51.2094 11.6641C51.5635 11.4557 51.8734 11.1771 52.1391 10.8281L53.0141 11.5234C52.8318 11.7995 52.6 12.0625 52.3187 12.3125C52.0375 12.5625 51.6911 12.7656 51.2797 12.9219C50.8734 13.0781 50.3917 13.1562 49.8344 13.1562ZM59.4328 10.7578C59.4328 10.5495 59.3859 10.3568 59.2922 10.1797C59.2036 9.9974 59.0187 9.83333 58.7375 9.6875C58.4615 9.53646 58.0448 9.40625 57.4875 9.29688C57.0187 9.19792 56.5943 9.08073 56.2141 8.94531C55.8391 8.8099 55.5187 8.64583 55.2531 8.45312C54.9927 8.26042 54.7922 8.03385 54.6516 7.77344C54.5109 7.51302 54.4406 7.20833 54.4406 6.85938C54.4406 6.52604 54.5135 6.21094 54.6594 5.91406C54.8104 5.61719 55.0214 5.35417 55.2922 5.125C55.5682 4.89583 55.899 4.71615 56.2844 4.58594C56.6698 4.45573 57.0995 4.39062 57.5734 4.39062C58.2505 4.39062 58.8286 4.51042 59.3078 4.75C59.787 4.98958 60.1542 5.3099 60.4094 5.71094C60.6646 6.10677 60.7922 6.54688 60.7922 7.03125H59.3469C59.3469 6.79688 59.2766 6.57031 59.1359 6.35156C59.0005 6.1276 58.8 5.94271 58.5344 5.79688C58.274 5.65104 57.9536 5.57812 57.5734 5.57812C57.1724 5.57812 56.8469 5.64062 56.5969 5.76562C56.3521 5.88542 56.1724 6.03906 56.0578 6.22656C55.9484 6.41406 55.8937 6.61198 55.8937 6.82031C55.8937 6.97656 55.9198 7.11719 55.9719 7.24219C56.0292 7.36198 56.1281 7.47396 56.2687 7.57812C56.4094 7.67708 56.6073 7.77083 56.8625 7.85938C57.1177 7.94792 57.4432 8.03646 57.8391 8.125C58.5318 8.28125 59.1021 8.46875 59.55 8.6875C59.9979 8.90625 60.3312 9.17448 60.55 9.49219C60.7687 9.8099 60.8781 10.1953 60.8781 10.6484C60.8781 11.0182 60.8 11.3568 60.6437 11.6641C60.4927 11.9714 60.2714 12.237 59.9797 12.4609C59.6932 12.6797 59.3495 12.8516 58.9484 12.9766C58.5526 13.0964 58.1073 13.1562 57.6125 13.1562C56.8677 13.1562 56.2375 13.0234 55.7219 12.7578C55.2062 12.4922 54.8156 12.1484 54.55 11.7266C54.2844 11.3047 54.1516 10.8594 54.1516 10.3906H55.6047C55.6255 10.7865 55.7401 11.1016 55.9484 11.3359C56.1568 11.5651 56.412 11.7292 56.7141 11.8281C57.0161 11.9219 57.3156 11.9688 57.6125 11.9688C58.0083 11.9688 58.3391 11.9167 58.6047 11.8125C58.8755 11.7083 59.0812 11.5651 59.2219 11.3828C59.3625 11.2005 59.4328 10.9922 59.4328 10.7578ZM67.3984 10.7578C67.3984 10.5495 67.3516 10.3568 67.2578 10.1797C67.1693 9.9974 66.9844 9.83333 66.7031 9.6875C66.4271 9.53646 66.0104 9.40625 65.4531 9.29688C64.9844 9.19792 64.5599 9.08073 64.1797 8.94531C63.8047 8.8099 63.4844 8.64583 63.2188 8.45312C62.9583 8.26042 62.7578 8.03385 62.6172 7.77344C62.4766 7.51302 62.4062 7.20833 62.4062 6.85938C62.4062 6.52604 62.4792 6.21094 62.625 5.91406C62.776 5.61719 62.987 5.35417 63.2578 5.125C63.5339 4.89583 63.8646 4.71615 64.25 4.58594C64.6354 4.45573 65.0651 4.39062 65.5391 4.39062C66.2161 4.39062 66.7943 4.51042 67.2734 4.75C67.7526 4.98958 68.1198 5.3099 68.375 5.71094C68.6302 6.10677 68.7578 6.54688 68.7578 7.03125H67.3125C67.3125 6.79688 67.2422 6.57031 67.1016 6.35156C66.9661 6.1276 66.7656 5.94271 66.5 5.79688C66.2396 5.65104 65.9193 5.57812 65.5391 5.57812C65.138 5.57812 64.8125 5.64062 64.5625 5.76562C64.3177 5.88542 64.138 6.03906 64.0234 6.22656C63.9141 6.41406 63.8594 6.61198 63.8594 6.82031C63.8594 6.97656 63.8854 7.11719 63.9375 7.24219C63.9948 7.36198 64.0938 7.47396 64.2344 7.57812C64.375 7.67708 64.5729 7.77083 64.8281 7.85938C65.0833 7.94792 65.4089 8.03646 65.8047 8.125C66.4974 8.28125 67.0677 8.46875 67.5156 8.6875C67.9635 8.90625 68.2969 9.17448 68.5156 9.49219C68.7344 9.8099 68.8438 10.1953 68.8438 10.6484C68.8438 11.0182 68.7656 11.3568 68.6094 11.6641C68.4583 11.9714 68.237 12.237 67.9453 12.4609C67.6589 12.6797 67.3151 12.8516 66.9141 12.9766C66.5182 13.0964 66.0729 13.1562 65.5781 13.1562C64.8333 13.1562 64.2031 13.0234 63.6875 12.7578C63.1719 12.4922 62.7812 12.1484 62.5156 11.7266C62.25 11.3047 62.1172 10.8594 62.1172 10.3906H63.5703C63.5911 10.7865 63.7057 11.1016 63.9141 11.3359C64.1224 11.5651 64.3776 11.7292 64.6797 11.8281C64.9818 11.9219 65.2812 11.9688 65.5781 11.9688C65.974 11.9688 66.3047 11.9167 66.5703 11.8125C66.8411 11.7083 67.0469 11.5651 67.1875 11.3828C67.3281 11.2005 67.3984 10.9922 67.3984 10.7578ZM75.9469 1.625V13H74.4391V1.625H75.9469ZM79.6156 6.35156V13H78.1703V4.54688H79.5375L79.6156 6.35156ZM79.2719 8.45312L78.6703 8.42969C78.6755 7.85156 78.7615 7.31771 78.9281 6.82812C79.0948 6.33333 79.3292 5.90365 79.6312 5.53906C79.9333 5.17448 80.2927 4.89323 80.7094 4.69531C81.1312 4.49219 81.5974 4.39062 82.1078 4.39062C82.5245 4.39062 82.8995 4.44792 83.2328 4.5625C83.5661 4.67188 83.85 4.84896 84.0844 5.09375C84.324 5.33854 84.5062 5.65625 84.6312 6.04688C84.7562 6.43229 84.8187 6.90365 84.8187 7.46094V13H83.3656V7.44531C83.3656 7.0026 83.3005 6.64844 83.1703 6.38281C83.0401 6.11198 82.85 5.91667 82.6 5.79688C82.35 5.67188 82.0427 5.60938 81.6781 5.60938C81.3187 5.60938 80.9906 5.6849 80.6937 5.83594C80.4021 5.98698 80.1495 6.19531 79.9359 6.46094C79.7276 6.72656 79.5635 7.03125 79.4437 7.375C79.3292 7.71354 79.2719 8.07292 79.2719 8.45312ZM88.8703 13H87.425V3.65625C87.425 3.04688 87.5344 2.53385 87.7531 2.11719C87.9771 1.69531 88.2974 1.3776 88.7141 1.16406C89.1307 0.945312 89.6255 0.835938 90.1984 0.835938C90.3651 0.835938 90.5318 0.846354 90.6984 0.867188C90.8703 0.888021 91.037 0.919271 91.1984 0.960938L91.1203 2.14062C91.0109 2.11458 90.8859 2.09635 90.7453 2.08594C90.6099 2.07552 90.4745 2.07031 90.3391 2.07031C90.0318 2.07031 89.7661 2.13281 89.5422 2.25781C89.3234 2.3776 89.1568 2.55469 89.0422 2.78906C88.9276 3.02344 88.8703 3.3125 88.8703 3.65625V13ZM90.6672 4.54688V5.65625H86.0891V4.54688H90.6672ZM91.5938 8.86719V8.6875C91.5938 8.07812 91.6823 7.51302 91.8594 6.99219C92.0365 6.46615 92.2917 6.01042 92.625 5.625C92.9583 5.23438 93.362 4.93229 93.8359 4.71875C94.3099 4.5 94.8411 4.39062 95.4297 4.39062C96.0234 4.39062 96.5573 4.5 97.0312 4.71875C97.5104 4.93229 97.9167 5.23438 98.25 5.625C98.5885 6.01042 98.8464 6.46615 99.0234 6.99219C99.2005 7.51302 99.2891 8.07812 99.2891 8.6875V8.86719C99.2891 9.47656 99.2005 10.0417 99.0234 10.5625C98.8464 11.0833 98.5885 11.5391 98.25 11.9297C97.9167 12.3151 97.513 12.6172 97.0391 12.8359C96.5703 13.0495 96.0391 13.1562 95.4453 13.1562C94.8516 13.1562 94.3177 13.0495 93.8438 12.8359C93.3698 12.6172 92.9635 12.3151 92.625 11.9297C92.2917 11.5391 92.0365 11.0833 91.8594 10.5625C91.6823 10.0417 91.5938 9.47656 91.5938 8.86719ZM93.0391 8.6875V8.86719C93.0391 9.28906 93.0885 9.6875 93.1875 10.0625C93.2865 10.4323 93.4349 10.7604 93.6328 11.0469C93.8359 11.3333 94.0885 11.5599 94.3906 11.7266C94.6927 11.888 95.0443 11.9688 95.4453 11.9688C95.8411 11.9688 96.1875 11.888 96.4844 11.7266C96.7865 11.5599 97.0365 11.3333 97.2344 11.0469C97.4323 10.7604 97.5807 10.4323 97.6797 10.0625C97.7839 9.6875 97.8359 9.28906 97.8359 8.86719V8.6875C97.8359 8.27083 97.7839 7.8776 97.6797 7.50781C97.5807 7.13281 97.4297 6.80208 97.2266 6.51562C97.0286 6.22396 96.7786 5.99479 96.4766 5.82812C96.1797 5.66146 95.8307 5.57812 95.4297 5.57812C95.0339 5.57812 94.6849 5.66146 94.3828 5.82812C94.0859 5.99479 93.8359 6.22396 93.6328 6.51562C93.4349 6.80208 93.2865 7.13281 93.1875 7.50781C93.0885 7.8776 93.0391 8.27083 93.0391 8.6875Z" fill="#333333"/>
<circle cx="114" cy="8" r="7" stroke="#4C9EEB" stroke-width="2"/>
<path d="M140 8.5H121.5" stroke="#4C9EEB"/>
<path d="M183.375 83.6797H180.492L180.477 82.4688H183.094C183.526 82.4688 183.904 82.3958 184.227 82.25C184.549 82.1042 184.799 81.8958 184.977 81.625C185.159 81.349 185.25 81.0208 185.25 80.6406C185.25 80.224 185.169 79.8854 185.008 79.625C184.852 79.3594 184.609 79.1667 184.281 79.0469C183.958 78.9219 183.547 78.8594 183.047 78.8594H180.828V89H179.32V77.625H183.047C183.63 77.625 184.151 77.6849 184.609 77.8047C185.068 77.9193 185.456 78.1016 185.773 78.3516C186.096 78.5964 186.341 78.9089 186.508 79.2891C186.674 79.6693 186.758 80.125 186.758 80.6562C186.758 81.125 186.638 81.5495 186.398 81.9297C186.159 82.3047 185.826 82.612 185.398 82.8516C184.977 83.0911 184.482 83.2448 183.914 83.3125L183.375 83.6797ZM183.305 89H179.898L180.75 87.7734H183.305C183.784 87.7734 184.19 87.6901 184.523 87.5234C184.862 87.3568 185.12 87.1224 185.297 86.8203C185.474 86.513 185.562 86.151 185.562 85.7344C185.562 85.3125 185.487 84.9479 185.336 84.6406C185.185 84.3333 184.948 84.0964 184.625 83.9297C184.302 83.763 183.885 83.6797 183.375 83.6797H181.227L181.242 82.4688H184.18L184.5 82.9062C185.047 82.9531 185.51 83.1094 185.891 83.375C186.271 83.6354 186.56 83.9688 186.758 84.375C186.961 84.7812 187.062 85.2292 187.062 85.7188C187.062 86.4271 186.906 87.026 186.594 87.5156C186.286 88 185.852 88.3698 185.289 88.625C184.727 88.875 184.065 89 183.305 89ZM190.341 80.5469V89H188.887V80.5469H190.341ZM188.778 78.3047C188.778 78.0703 188.848 77.8724 188.989 77.7109C189.135 77.5495 189.348 77.4688 189.63 77.4688C189.906 77.4688 190.117 77.5495 190.262 77.7109C190.414 77.8724 190.489 78.0703 190.489 78.3047C190.489 78.5286 190.414 78.7214 190.262 78.8828C190.117 79.0391 189.906 79.1172 189.63 79.1172C189.348 79.1172 189.135 79.0391 188.989 78.8828C188.848 78.7214 188.778 78.5286 188.778 78.3047ZM193.931 77V89H192.478V77H193.931ZM197.522 77V89H196.069V77H197.522ZM201.112 80.5469V89H199.659V80.5469H201.112ZM199.55 78.3047C199.55 78.0703 199.62 77.8724 199.761 77.7109C199.907 77.5495 200.12 77.4688 200.402 77.4688C200.678 77.4688 200.889 77.5495 201.034 77.7109C201.185 77.8724 201.261 78.0703 201.261 78.3047C201.261 78.5286 201.185 78.7214 201.034 78.8828C200.889 79.0391 200.678 79.1172 200.402 79.1172C200.12 79.1172 199.907 79.0391 199.761 78.8828C199.62 78.7214 199.55 78.5286 199.55 78.3047ZM204.578 82.3516V89H203.133V80.5469H204.5L204.578 82.3516ZM204.234 84.4531L203.633 84.4297C203.638 83.8516 203.724 83.3177 203.891 82.8281C204.057 82.3333 204.292 81.9036 204.594 81.5391C204.896 81.1745 205.255 80.8932 205.672 80.6953C206.094 80.4922 206.56 80.3906 207.07 80.3906C207.487 80.3906 207.862 80.4479 208.195 80.5625C208.529 80.6719 208.812 80.849 209.047 81.0938C209.286 81.3385 209.469 81.6562 209.594 82.0469C209.719 82.4323 209.781 82.9036 209.781 83.4609V89H208.328V83.4453C208.328 83.0026 208.263 82.6484 208.133 82.3828C208.003 82.112 207.812 81.9167 207.562 81.7969C207.312 81.6719 207.005 81.6094 206.641 81.6094C206.281 81.6094 205.953 81.6849 205.656 81.8359C205.365 81.987 205.112 82.1953 204.898 82.4609C204.69 82.7266 204.526 83.0312 204.406 83.375C204.292 83.7135 204.234 84.0729 204.234 84.4531ZM217.153 80.5469H218.466V88.8203C218.466 89.5651 218.315 90.2005 218.013 90.7266C217.71 91.2526 217.289 91.651 216.747 91.9219C216.21 92.1979 215.591 92.3359 214.888 92.3359C214.596 92.3359 214.252 92.2891 213.856 92.1953C213.466 92.1068 213.08 91.9531 212.7 91.7344C212.325 91.5208 212.01 91.2318 211.755 90.8672L212.513 90.0078C212.867 90.4349 213.236 90.7318 213.622 90.8984C214.013 91.0651 214.398 91.1484 214.778 91.1484C215.236 91.1484 215.632 91.0625 215.966 90.8906C216.299 90.7188 216.557 90.4635 216.739 90.125C216.927 89.7917 217.02 89.3802 217.02 88.8906V82.4062L217.153 80.5469ZM211.333 84.8672V84.7031C211.333 84.0573 211.408 83.4714 211.559 82.9453C211.716 82.4141 211.937 81.9583 212.223 81.5781C212.515 81.1979 212.867 80.9062 213.278 80.7031C213.69 80.4948 214.153 80.3906 214.669 80.3906C215.2 80.3906 215.664 80.4844 216.059 80.6719C216.46 80.8542 216.799 81.1224 217.075 81.4766C217.356 81.8255 217.578 82.2474 217.739 82.7422C217.901 83.237 218.013 83.7969 218.075 84.4219V85.1406C218.018 85.7604 217.906 86.3177 217.739 86.8125C217.578 87.3073 217.356 87.7292 217.075 88.0781C216.799 88.4271 216.46 88.6953 216.059 88.8828C215.658 89.0651 215.19 89.1562 214.653 89.1562C214.148 89.1562 213.69 89.0495 213.278 88.8359C212.872 88.6224 212.523 88.3229 212.231 87.9375C211.94 87.5521 211.716 87.099 211.559 86.5781C211.408 86.0521 211.333 85.4818 211.333 84.8672ZM212.778 84.7031V84.8672C212.778 85.2891 212.82 85.6849 212.903 86.0547C212.992 86.4245 213.124 86.75 213.302 87.0312C213.484 87.3125 213.716 87.5339 213.997 87.6953C214.278 87.8516 214.614 87.9297 215.005 87.9297C215.484 87.9297 215.88 87.8281 216.192 87.625C216.505 87.4219 216.752 87.1536 216.934 86.8203C217.122 86.487 217.268 86.125 217.372 85.7344V83.8516C217.315 83.5651 217.226 83.2891 217.106 83.0234C216.992 82.7526 216.841 82.513 216.653 82.3047C216.471 82.0911 216.244 81.9219 215.973 81.7969C215.703 81.6719 215.385 81.6094 215.02 81.6094C214.624 81.6094 214.283 81.6927 213.997 81.8594C213.716 82.0208 213.484 82.2448 213.302 82.5312C213.124 82.8125 212.992 83.1406 212.903 83.5156C212.82 83.8854 212.778 84.2812 212.778 84.7031ZM224.725 77.625H226.186L229.912 86.8984L233.631 77.625H235.1L230.475 89H229.334L224.725 77.625ZM224.248 77.625H225.537L225.748 84.5625V89H224.248V77.625ZM234.28 77.625H235.569V89H234.069V84.5625L234.28 77.625ZM241.206 89.1562C240.618 89.1562 240.084 89.0573 239.605 88.8594C239.131 88.6562 238.722 88.3724 238.378 88.0078C238.04 87.6432 237.779 87.2109 237.597 86.7109C237.415 86.2109 237.323 85.6641 237.323 85.0703V84.7422C237.323 84.0547 237.425 83.4427 237.628 82.9062C237.831 82.3646 238.107 81.9062 238.456 81.5312C238.805 81.1562 239.201 80.8724 239.644 80.6797C240.086 80.487 240.545 80.3906 241.019 80.3906C241.623 80.3906 242.144 80.4948 242.581 80.7031C243.024 80.9115 243.386 81.2031 243.667 81.5781C243.948 81.9479 244.157 82.3854 244.292 82.8906C244.428 83.3906 244.495 83.9375 244.495 84.5312V85.1797H238.183V84H243.05V83.8906C243.029 83.5156 242.951 83.151 242.816 82.7969C242.685 82.4427 242.477 82.151 242.191 81.9219C241.904 81.6927 241.514 81.5781 241.019 81.5781C240.691 81.5781 240.389 81.6484 240.112 81.7891C239.836 81.9245 239.599 82.1276 239.402 82.3984C239.204 82.6693 239.05 83 238.941 83.3906C238.831 83.7812 238.777 84.2318 238.777 84.7422V85.0703C238.777 85.4714 238.831 85.849 238.941 86.2031C239.055 86.5521 239.219 86.8594 239.433 87.125C239.652 87.3906 239.915 87.599 240.222 87.75C240.534 87.901 240.889 87.9766 241.284 87.9766C241.795 87.9766 242.227 87.8724 242.581 87.6641C242.935 87.4557 243.245 87.1771 243.511 86.8281L244.386 87.5234C244.204 87.7995 243.972 88.0625 243.691 88.3125C243.409 88.5625 243.063 88.7656 242.652 88.9219C242.245 89.0781 241.764 89.1562 241.206 89.1562ZM249.422 80.5469V81.6562H244.852V80.5469H249.422ZM246.398 78.4922H247.844V86.9062C247.844 87.1927 247.888 87.4089 247.977 87.5547C248.065 87.7005 248.18 87.7969 248.32 87.8438C248.461 87.8906 248.612 87.9141 248.773 87.9141C248.893 87.9141 249.018 87.9036 249.148 87.8828C249.284 87.8568 249.385 87.8359 249.453 87.8203L249.461 89C249.346 89.0365 249.195 89.0703 249.008 89.1016C248.826 89.138 248.604 89.1562 248.344 89.1562C247.99 89.1562 247.664 89.0859 247.367 88.9453C247.07 88.8047 246.833 88.5703 246.656 88.2422C246.484 87.9089 246.398 87.4609 246.398 86.8984V78.4922ZM252.262 77V89H250.817V77H252.262ZM251.919 84.4531L251.317 84.4297C251.322 83.8516 251.408 83.3177 251.575 82.8281C251.742 82.3333 251.976 81.9036 252.278 81.5391C252.58 81.1745 252.94 80.8932 253.356 80.6953C253.778 80.4922 254.244 80.3906 254.755 80.3906C255.171 80.3906 255.546 80.4479 255.88 80.5625C256.213 80.6719 256.497 80.849 256.731 81.0938C256.971 81.3385 257.153 81.6562 257.278 82.0469C257.403 82.4323 257.466 82.9036 257.466 83.4609V89H256.012V83.4453C256.012 83.0026 255.947 82.6484 255.817 82.3828C255.687 82.112 255.497 81.9167 255.247 81.7969C254.997 81.6719 254.69 81.6094 254.325 81.6094C253.966 81.6094 253.637 81.6849 253.341 81.8359C253.049 81.987 252.796 82.1953 252.583 82.4609C252.374 82.7266 252.21 83.0312 252.091 83.375C251.976 83.7135 251.919 84.0729 251.919 84.4531ZM258.947 84.8672V84.6875C258.947 84.0781 259.035 83.513 259.213 82.9922C259.39 82.4661 259.645 82.0104 259.978 81.625C260.311 81.2344 260.715 80.9323 261.189 80.7188C261.663 80.5 262.194 80.3906 262.783 80.3906C263.377 80.3906 263.91 80.5 264.384 80.7188C264.864 80.9323 265.27 81.2344 265.603 81.625C265.942 82.0104 266.199 82.4661 266.377 82.9922C266.554 83.513 266.642 84.0781 266.642 84.6875V84.8672C266.642 85.4766 266.554 86.0417 266.377 86.5625C266.199 87.0833 265.942 87.5391 265.603 87.9297C265.27 88.3151 264.866 88.6172 264.392 88.8359C263.923 89.0495 263.392 89.1562 262.798 89.1562C262.205 89.1562 261.671 89.0495 261.197 88.8359C260.723 88.6172 260.317 88.3151 259.978 87.9297C259.645 87.5391 259.39 87.0833 259.213 86.5625C259.035 86.0417 258.947 85.4766 258.947 84.8672ZM260.392 84.6875V84.8672C260.392 85.2891 260.442 85.6875 260.541 86.0625C260.64 86.4323 260.788 86.7604 260.986 87.0469C261.189 87.3333 261.442 87.5599 261.744 87.7266C262.046 87.888 262.397 87.9688 262.798 87.9688C263.194 87.9688 263.541 87.888 263.838 87.7266C264.14 87.5599 264.39 87.3333 264.588 87.0469C264.785 86.7604 264.934 86.4323 265.033 86.0625C265.137 85.6875 265.189 85.2891 265.189 84.8672V84.6875C265.189 84.2708 265.137 83.8776 265.033 83.5078C264.934 83.1328 264.783 82.8021 264.58 82.5156C264.382 82.224 264.132 81.9948 263.83 81.8281C263.533 81.6615 263.184 81.5781 262.783 81.5781C262.387 81.5781 262.038 81.6615 261.736 81.8281C261.439 81.9948 261.189 82.224 260.986 82.5156C260.788 82.8021 260.64 83.1328 260.541 83.5078C260.442 83.8776 260.392 84.2708 260.392 84.6875ZM273.483 87.3594V77H274.936V89H273.608L273.483 87.3594ZM267.795 84.8672V84.7031C267.795 84.0573 267.873 83.4714 268.03 82.9453C268.191 82.4141 268.418 81.9583 268.709 81.5781C269.006 81.1979 269.358 80.9062 269.764 80.7031C270.176 80.4948 270.634 80.3906 271.139 80.3906C271.67 80.3906 272.134 80.4844 272.53 80.6719C272.931 80.8542 273.269 81.1224 273.545 81.4766C273.827 81.8255 274.048 82.2474 274.209 82.7422C274.371 83.237 274.483 83.7969 274.545 84.4219V85.1406C274.488 85.7604 274.376 86.3177 274.209 86.8125C274.048 87.3073 273.827 87.7292 273.545 88.0781C273.269 88.4271 272.931 88.6953 272.53 88.8828C272.129 89.0651 271.66 89.1562 271.123 89.1562C270.629 89.1562 270.176 89.0495 269.764 88.8359C269.358 88.6224 269.006 88.3229 268.709 87.9375C268.418 87.5521 268.191 87.099 268.03 86.5781C267.873 86.0521 267.795 85.4818 267.795 84.8672ZM269.248 84.7031V84.8672C269.248 85.2891 269.29 85.6849 269.373 86.0547C269.462 86.4245 269.597 86.75 269.78 87.0312C269.962 87.3125 270.194 87.5339 270.475 87.6953C270.756 87.8516 271.092 87.9297 271.483 87.9297C271.962 87.9297 272.355 87.8281 272.662 87.625C272.975 87.4219 273.225 87.1536 273.412 86.8203C273.6 86.487 273.746 86.125 273.85 85.7344V83.8516C273.787 83.5651 273.696 83.2891 273.577 83.0234C273.462 82.7526 273.311 82.513 273.123 82.3047C272.941 82.0911 272.715 81.9219 272.444 81.7969C272.178 81.6719 271.863 81.6094 271.498 81.6094C271.103 81.6094 270.761 81.6927 270.475 81.8594C270.194 82.0208 269.962 82.2448 269.78 82.5312C269.597 82.8125 269.462 83.1406 269.373 83.5156C269.29 83.8854 269.248 84.2812 269.248 84.7031Z" fill="#333333"/>
<circle cx="166" cy="84" r="7.5" stroke="#4C9EEB"/>
<path d="M158 84H139.5" stroke="#4C9EEB"/>
<path d="M185.383 238.125C185.383 237.859 185.341 237.625 185.258 237.422C185.18 237.214 185.039 237.026 184.836 236.859C184.638 236.693 184.362 236.534 184.008 236.383C183.659 236.232 183.216 236.078 182.68 235.922C182.117 235.755 181.609 235.57 181.156 235.367C180.703 235.159 180.315 234.922 179.992 234.656C179.669 234.391 179.422 234.086 179.25 233.742C179.078 233.398 178.992 233.005 178.992 232.562C178.992 232.12 179.083 231.711 179.266 231.336C179.448 230.961 179.708 230.635 180.047 230.359C180.391 230.078 180.799 229.859 181.273 229.703C181.747 229.547 182.276 229.469 182.859 229.469C183.714 229.469 184.438 229.633 185.031 229.961C185.63 230.284 186.086 230.708 186.398 231.234C186.711 231.755 186.867 232.312 186.867 232.906H185.367C185.367 232.479 185.276 232.102 185.094 231.773C184.911 231.44 184.635 231.18 184.266 230.992C183.896 230.799 183.427 230.703 182.859 230.703C182.323 230.703 181.88 230.784 181.531 230.945C181.182 231.107 180.922 231.326 180.75 231.602C180.583 231.878 180.5 232.193 180.5 232.547C180.5 232.786 180.549 233.005 180.648 233.203C180.753 233.396 180.911 233.576 181.125 233.742C181.344 233.909 181.62 234.062 181.953 234.203C182.292 234.344 182.695 234.479 183.164 234.609C183.81 234.792 184.367 234.995 184.836 235.219C185.305 235.443 185.69 235.695 185.992 235.977C186.299 236.253 186.526 236.568 186.672 236.922C186.823 237.271 186.898 237.667 186.898 238.109C186.898 238.573 186.805 238.992 186.617 239.367C186.43 239.742 186.161 240.062 185.812 240.328C185.464 240.594 185.044 240.799 184.555 240.945C184.07 241.086 183.529 241.156 182.93 241.156C182.404 241.156 181.885 241.083 181.375 240.938C180.87 240.792 180.409 240.573 179.992 240.281C179.581 239.99 179.25 239.63 179 239.203C178.755 238.771 178.633 238.271 178.633 237.703H180.133C180.133 238.094 180.208 238.43 180.359 238.711C180.51 238.987 180.716 239.216 180.977 239.398C181.242 239.581 181.542 239.716 181.875 239.805C182.214 239.888 182.565 239.93 182.93 239.93C183.456 239.93 183.901 239.857 184.266 239.711C184.63 239.565 184.906 239.357 185.094 239.086C185.286 238.815 185.383 238.495 185.383 238.125ZM191.809 241.156C191.221 241.156 190.687 241.057 190.208 240.859C189.734 240.656 189.325 240.372 188.981 240.008C188.643 239.643 188.382 239.211 188.2 238.711C188.018 238.211 187.927 237.664 187.927 237.07V236.742C187.927 236.055 188.028 235.443 188.231 234.906C188.434 234.365 188.71 233.906 189.059 233.531C189.408 233.156 189.804 232.872 190.247 232.68C190.69 232.487 191.148 232.391 191.622 232.391C192.226 232.391 192.747 232.495 193.184 232.703C193.627 232.911 193.989 233.203 194.27 233.578C194.552 233.948 194.76 234.385 194.895 234.891C195.031 235.391 195.098 235.938 195.098 236.531V237.18H188.786V236H193.653V235.891C193.632 235.516 193.554 235.151 193.419 234.797C193.289 234.443 193.08 234.151 192.794 233.922C192.507 233.693 192.117 233.578 191.622 233.578C191.294 233.578 190.992 233.648 190.716 233.789C190.44 233.924 190.203 234.128 190.005 234.398C189.807 234.669 189.653 235 189.544 235.391C189.434 235.781 189.38 236.232 189.38 236.742V237.07C189.38 237.471 189.434 237.849 189.544 238.203C189.658 238.552 189.822 238.859 190.036 239.125C190.255 239.391 190.518 239.599 190.825 239.75C191.137 239.901 191.492 239.977 191.887 239.977C192.398 239.977 192.83 239.872 193.184 239.664C193.539 239.456 193.848 239.177 194.114 238.828L194.989 239.523C194.807 239.799 194.575 240.062 194.294 240.312C194.012 240.562 193.666 240.766 193.255 240.922C192.848 241.078 192.367 241.156 191.809 241.156ZM198.056 229V241H196.603V229H198.056ZM201.647 229V241H200.194V229H201.647ZM207.175 241.156C206.586 241.156 206.053 241.057 205.573 240.859C205.099 240.656 204.691 240.372 204.347 240.008C204.008 239.643 203.748 239.211 203.566 238.711C203.383 238.211 203.292 237.664 203.292 237.07V236.742C203.292 236.055 203.394 235.443 203.597 234.906C203.8 234.365 204.076 233.906 204.425 233.531C204.774 233.156 205.17 232.872 205.612 232.68C206.055 232.487 206.514 232.391 206.987 232.391C207.592 232.391 208.112 232.495 208.55 232.703C208.993 232.911 209.355 233.203 209.636 233.578C209.917 233.948 210.126 234.385 210.261 234.891C210.396 235.391 210.464 235.938 210.464 236.531V237.18H204.152V236H209.019V235.891C208.998 235.516 208.92 235.151 208.784 234.797C208.654 234.443 208.446 234.151 208.159 233.922C207.873 233.693 207.482 233.578 206.987 233.578C206.659 233.578 206.357 233.648 206.081 233.789C205.805 233.924 205.568 234.128 205.37 234.398C205.172 234.669 205.019 235 204.909 235.391C204.8 235.781 204.745 236.232 204.745 236.742V237.07C204.745 237.471 204.8 237.849 204.909 238.203C205.024 238.552 205.188 238.859 205.402 239.125C205.62 239.391 205.883 239.599 206.191 239.75C206.503 239.901 206.857 239.977 207.253 239.977C207.764 239.977 208.196 239.872 208.55 239.664C208.904 239.456 209.214 239.177 209.48 238.828L210.355 239.523C210.172 239.799 209.941 240.062 209.659 240.312C209.378 240.562 209.032 240.766 208.62 240.922C208.214 241.078 207.732 241.156 207.175 241.156ZM213.297 233.875V241H211.852V232.547H213.258L213.297 233.875ZM215.938 232.5L215.93 233.844C215.81 233.818 215.695 233.802 215.586 233.797C215.482 233.786 215.362 233.781 215.227 233.781C214.893 233.781 214.599 233.833 214.344 233.938C214.089 234.042 213.872 234.188 213.695 234.375C213.518 234.562 213.378 234.786 213.273 235.047C213.174 235.302 213.109 235.583 213.078 235.891L212.672 236.125C212.672 235.615 212.721 235.135 212.82 234.688C212.924 234.24 213.083 233.844 213.297 233.5C213.51 233.151 213.781 232.88 214.109 232.688C214.443 232.49 214.839 232.391 215.297 232.391C215.401 232.391 215.521 232.404 215.656 232.43C215.792 232.451 215.885 232.474 215.938 232.5ZM218.559 229V230C218.559 230.312 218.505 230.643 218.395 230.992C218.291 231.336 218.138 231.669 217.934 231.992C217.731 232.31 217.486 232.589 217.2 232.828L216.372 232.258C216.617 231.914 216.802 231.562 216.927 231.203C217.057 230.839 217.122 230.445 217.122 230.023V229H218.559ZM224.048 238.758C224.048 238.549 224.002 238.357 223.908 238.18C223.819 237.997 223.634 237.833 223.353 237.688C223.077 237.536 222.66 237.406 222.103 237.297C221.634 237.198 221.21 237.081 220.83 236.945C220.455 236.81 220.134 236.646 219.869 236.453C219.608 236.26 219.408 236.034 219.267 235.773C219.127 235.513 219.056 235.208 219.056 234.859C219.056 234.526 219.129 234.211 219.275 233.914C219.426 233.617 219.637 233.354 219.908 233.125C220.184 232.896 220.515 232.716 220.9 232.586C221.285 232.456 221.715 232.391 222.189 232.391C222.866 232.391 223.444 232.51 223.923 232.75C224.403 232.99 224.77 233.31 225.025 233.711C225.28 234.107 225.408 234.547 225.408 235.031H223.963C223.963 234.797 223.892 234.57 223.752 234.352C223.616 234.128 223.416 233.943 223.15 233.797C222.89 233.651 222.569 233.578 222.189 233.578C221.788 233.578 221.463 233.641 221.213 233.766C220.968 233.885 220.788 234.039 220.673 234.227C220.564 234.414 220.509 234.612 220.509 234.82C220.509 234.977 220.535 235.117 220.588 235.242C220.645 235.362 220.744 235.474 220.884 235.578C221.025 235.677 221.223 235.771 221.478 235.859C221.733 235.948 222.059 236.036 222.455 236.125C223.147 236.281 223.718 236.469 224.166 236.688C224.614 236.906 224.947 237.174 225.166 237.492C225.384 237.81 225.494 238.195 225.494 238.648C225.494 239.018 225.416 239.357 225.259 239.664C225.108 239.971 224.887 240.237 224.595 240.461C224.309 240.68 223.965 240.852 223.564 240.977C223.168 241.096 222.723 241.156 222.228 241.156C221.483 241.156 220.853 241.023 220.338 240.758C219.822 240.492 219.431 240.148 219.166 239.727C218.9 239.305 218.767 238.859 218.767 238.391H220.22C220.241 238.786 220.356 239.102 220.564 239.336C220.772 239.565 221.028 239.729 221.33 239.828C221.632 239.922 221.931 239.969 222.228 239.969C222.624 239.969 222.955 239.917 223.22 239.812C223.491 239.708 223.697 239.565 223.838 239.383C223.978 239.201 224.048 238.992 224.048 238.758ZM234.652 239.273L238.003 229.625H239.636L235.425 241H234.261L234.652 239.273ZM231.519 229.625L234.839 239.273L235.253 241H234.089L229.886 229.625H231.519ZM243.812 241.156C243.224 241.156 242.69 241.057 242.211 240.859C241.737 240.656 241.328 240.372 240.984 240.008C240.646 239.643 240.385 239.211 240.203 238.711C240.021 238.211 239.93 237.664 239.93 237.07V236.742C239.93 236.055 240.031 235.443 240.234 234.906C240.438 234.365 240.714 233.906 241.062 233.531C241.411 233.156 241.807 232.872 242.25 232.68C242.693 232.487 243.151 232.391 243.625 232.391C244.229 232.391 244.75 232.495 245.188 232.703C245.63 232.911 245.992 233.203 246.273 233.578C246.555 233.948 246.763 234.385 246.898 234.891C247.034 235.391 247.102 235.938 247.102 236.531V237.18H240.789V236H245.656V235.891C245.635 235.516 245.557 235.151 245.422 234.797C245.292 234.443 245.083 234.151 244.797 233.922C244.51 233.693 244.12 233.578 243.625 233.578C243.297 233.578 242.995 233.648 242.719 233.789C242.443 233.924 242.206 234.128 242.008 234.398C241.81 234.669 241.656 235 241.547 235.391C241.438 235.781 241.383 236.232 241.383 236.742V237.07C241.383 237.471 241.438 237.849 241.547 238.203C241.661 238.552 241.826 238.859 242.039 239.125C242.258 239.391 242.521 239.599 242.828 239.75C243.141 239.901 243.495 239.977 243.891 239.977C244.401 239.977 244.833 239.872 245.188 239.664C245.542 239.456 245.852 239.177 246.117 238.828L246.992 239.523C246.81 239.799 246.578 240.062 246.297 240.312C246.016 240.562 245.669 240.766 245.258 240.922C244.852 241.078 244.37 241.156 243.812 241.156ZM249.934 233.875V241H248.489V232.547H249.895L249.934 233.875ZM252.575 232.5L252.567 233.844C252.447 233.818 252.333 233.802 252.223 233.797C252.119 233.786 251.999 233.781 251.864 233.781C251.531 233.781 251.236 233.833 250.981 233.938C250.726 234.042 250.51 234.188 250.333 234.375C250.156 234.562 250.015 234.786 249.911 235.047C249.812 235.302 249.747 235.583 249.716 235.891L249.309 236.125C249.309 235.615 249.359 235.135 249.458 234.688C249.562 234.24 249.721 233.844 249.934 233.5C250.148 233.151 250.419 232.88 250.747 232.688C251.08 232.49 251.476 232.391 251.934 232.391C252.039 232.391 252.158 232.404 252.294 232.43C252.429 232.451 252.523 232.474 252.575 232.5ZM255.181 232.547V241H253.728V232.547H255.181ZM253.619 230.305C253.619 230.07 253.689 229.872 253.83 229.711C253.976 229.549 254.189 229.469 254.47 229.469C254.746 229.469 254.957 229.549 255.103 229.711C255.254 229.872 255.33 230.07 255.33 230.305C255.33 230.529 255.254 230.721 255.103 230.883C254.957 231.039 254.746 231.117 254.47 231.117C254.189 231.117 253.976 231.039 253.83 230.883C253.689 230.721 253.619 230.529 253.619 230.305ZM259.131 241H257.686V231.812C257.686 231.172 257.811 230.63 258.061 230.188C258.311 229.745 258.668 229.409 259.131 229.18C259.595 228.951 260.144 228.836 260.78 228.836C261.155 228.836 261.522 228.883 261.881 228.977C262.241 229.065 262.61 229.177 262.991 229.312L262.748 230.531C262.509 230.438 262.23 230.349 261.912 230.266C261.6 230.177 261.256 230.133 260.881 230.133C260.261 230.133 259.814 230.273 259.537 230.555C259.267 230.831 259.131 231.25 259.131 231.812V241ZM260.858 232.547V233.656H256.35V232.547H260.858ZM263.702 232.547V241H262.256V232.547H263.702ZM269.159 239.969C269.503 239.969 269.821 239.898 270.113 239.758C270.404 239.617 270.644 239.424 270.831 239.18C271.019 238.93 271.126 238.646 271.152 238.328H272.527C272.501 238.828 272.331 239.294 272.019 239.727C271.711 240.154 271.308 240.5 270.808 240.766C270.308 241.026 269.758 241.156 269.159 241.156C268.524 241.156 267.969 241.044 267.495 240.82C267.027 240.596 266.636 240.289 266.323 239.898C266.016 239.508 265.784 239.06 265.628 238.555C265.477 238.044 265.402 237.505 265.402 236.938V236.609C265.402 236.042 265.477 235.505 265.628 235C265.784 234.49 266.016 234.039 266.323 233.648C266.636 233.258 267.027 232.951 267.495 232.727C267.969 232.503 268.524 232.391 269.159 232.391C269.821 232.391 270.399 232.526 270.894 232.797C271.389 233.062 271.777 233.427 272.058 233.891C272.344 234.349 272.501 234.87 272.527 235.453H271.152C271.126 235.104 271.027 234.789 270.855 234.508C270.688 234.227 270.459 234.003 270.167 233.836C269.881 233.664 269.545 233.578 269.159 233.578C268.717 233.578 268.344 233.667 268.042 233.844C267.745 234.016 267.508 234.25 267.331 234.547C267.159 234.839 267.034 235.164 266.956 235.523C266.883 235.878 266.847 236.24 266.847 236.609V236.938C266.847 237.307 266.883 237.672 266.956 238.031C267.029 238.391 267.152 238.716 267.323 239.008C267.501 239.299 267.738 239.534 268.034 239.711C268.336 239.883 268.711 239.969 269.159 239.969ZM278.836 239.555V235.203C278.836 234.87 278.768 234.581 278.633 234.336C278.503 234.086 278.305 233.893 278.039 233.758C277.773 233.622 277.445 233.555 277.055 233.555C276.69 233.555 276.37 233.617 276.094 233.742C275.823 233.867 275.609 234.031 275.453 234.234C275.302 234.438 275.227 234.656 275.227 234.891H273.781C273.781 234.589 273.859 234.289 274.016 233.992C274.172 233.695 274.396 233.427 274.688 233.188C274.984 232.943 275.339 232.75 275.75 232.609C276.167 232.464 276.63 232.391 277.141 232.391C277.755 232.391 278.297 232.495 278.766 232.703C279.24 232.911 279.609 233.227 279.875 233.648C280.146 234.065 280.281 234.589 280.281 235.219V239.156C280.281 239.438 280.305 239.737 280.352 240.055C280.404 240.372 280.479 240.646 280.578 240.875V241H279.07C278.997 240.833 278.94 240.612 278.898 240.336C278.857 240.055 278.836 239.794 278.836 239.555ZM279.086 235.875L279.102 236.891H277.641C277.229 236.891 276.862 236.924 276.539 236.992C276.216 237.055 275.945 237.151 275.727 237.281C275.508 237.411 275.341 237.576 275.227 237.773C275.112 237.966 275.055 238.193 275.055 238.453C275.055 238.719 275.115 238.961 275.234 239.18C275.354 239.398 275.534 239.573 275.773 239.703C276.018 239.828 276.318 239.891 276.672 239.891C277.115 239.891 277.505 239.797 277.844 239.609C278.182 239.422 278.451 239.193 278.648 238.922C278.852 238.651 278.961 238.388 278.977 238.133L279.594 238.828C279.557 239.047 279.458 239.289 279.297 239.555C279.135 239.82 278.919 240.076 278.648 240.32C278.383 240.56 278.065 240.76 277.695 240.922C277.331 241.078 276.919 241.156 276.461 241.156C275.888 241.156 275.385 241.044 274.953 240.82C274.526 240.596 274.193 240.297 273.953 239.922C273.719 239.542 273.602 239.117 273.602 238.648C273.602 238.195 273.69 237.797 273.867 237.453C274.044 237.104 274.299 236.815 274.633 236.586C274.966 236.352 275.367 236.174 275.836 236.055C276.305 235.935 276.828 235.875 277.406 235.875H279.086ZM285.794 232.547V233.656H281.223V232.547H285.794ZM282.77 230.492H284.216V238.906C284.216 239.193 284.26 239.409 284.348 239.555C284.437 239.701 284.552 239.797 284.692 239.844C284.833 239.891 284.984 239.914 285.145 239.914C285.265 239.914 285.39 239.904 285.52 239.883C285.656 239.857 285.757 239.836 285.825 239.82L285.833 241C285.718 241.036 285.567 241.07 285.38 241.102C285.197 241.138 284.976 241.156 284.716 241.156C284.361 241.156 284.036 241.086 283.739 240.945C283.442 240.805 283.205 240.57 283.028 240.242C282.856 239.909 282.77 239.461 282.77 238.898V230.492ZM288.759 232.547V241H287.306V232.547H288.759ZM287.197 230.305C287.197 230.07 287.267 229.872 287.408 229.711C287.554 229.549 287.767 229.469 288.048 229.469C288.324 229.469 288.535 229.549 288.681 229.711C288.832 229.872 288.908 230.07 288.908 230.305C288.908 230.529 288.832 230.721 288.681 230.883C288.535 231.039 288.324 231.117 288.048 231.117C287.767 231.117 287.554 231.039 287.408 230.883C287.267 230.721 287.197 230.529 287.197 230.305ZM290.397 236.867V236.688C290.397 236.078 290.485 235.513 290.662 234.992C290.84 234.466 291.095 234.01 291.428 233.625C291.761 233.234 292.165 232.932 292.639 232.719C293.113 232.5 293.644 232.391 294.233 232.391C294.827 232.391 295.36 232.5 295.834 232.719C296.314 232.932 296.72 233.234 297.053 233.625C297.392 234.01 297.649 234.466 297.827 234.992C298.004 235.513 298.092 236.078 298.092 236.688V236.867C298.092 237.477 298.004 238.042 297.827 238.562C297.649 239.083 297.392 239.539 297.053 239.93C296.72 240.315 296.316 240.617 295.842 240.836C295.373 241.049 294.842 241.156 294.248 241.156C293.655 241.156 293.121 241.049 292.647 240.836C292.173 240.617 291.767 240.315 291.428 239.93C291.095 239.539 290.84 239.083 290.662 238.562C290.485 238.042 290.397 237.477 290.397 236.867ZM291.842 236.688V236.867C291.842 237.289 291.892 237.688 291.991 238.062C292.09 238.432 292.238 238.76 292.436 239.047C292.639 239.333 292.892 239.56 293.194 239.727C293.496 239.888 293.847 239.969 294.248 239.969C294.644 239.969 294.991 239.888 295.287 239.727C295.59 239.56 295.84 239.333 296.037 239.047C296.235 238.76 296.384 238.432 296.483 238.062C296.587 237.688 296.639 237.289 296.639 236.867V236.688C296.639 236.271 296.587 235.878 296.483 235.508C296.384 235.133 296.233 234.802 296.03 234.516C295.832 234.224 295.582 233.995 295.28 233.828C294.983 233.661 294.634 233.578 294.233 233.578C293.837 233.578 293.488 233.661 293.186 233.828C292.889 233.995 292.639 234.224 292.436 234.516C292.238 234.802 292.09 235.133 291.991 235.508C291.892 235.878 291.842 236.271 291.842 236.688ZM301.05 234.352V241H299.605V232.547H300.972L301.05 234.352ZM300.706 236.453L300.105 236.43C300.11 235.852 300.196 235.318 300.363 234.828C300.529 234.333 300.764 233.904 301.066 233.539C301.368 233.174 301.727 232.893 302.144 232.695C302.566 232.492 303.032 232.391 303.542 232.391C303.959 232.391 304.334 232.448 304.667 232.562C305.001 232.672 305.284 232.849 305.519 233.094C305.758 233.339 305.941 233.656 306.066 234.047C306.191 234.432 306.253 234.904 306.253 235.461V241H304.8V235.445C304.8 235.003 304.735 234.648 304.605 234.383C304.474 234.112 304.284 233.917 304.034 233.797C303.784 233.672 303.477 233.609 303.113 233.609C302.753 233.609 302.425 233.685 302.128 233.836C301.836 233.987 301.584 234.195 301.37 234.461C301.162 234.727 300.998 235.031 300.878 235.375C300.764 235.714 300.706 236.073 300.706 236.453Z" fill="#333333"/>
<circle cx="166" cy="236" r="7.5" stroke="#4C9EEB"/>
<path d="M158 236H139.5" stroke="#4C9EEB"/>
<path d="M54.925 161.383H56.425C56.3469 162.102 56.1411 162.745 55.8078 163.312C55.4745 163.88 55.0031 164.331 54.3937 164.664C53.7844 164.992 53.024 165.156 52.1125 165.156C51.4458 165.156 50.8391 165.031 50.2922 164.781C49.7505 164.531 49.2844 164.177 48.8937 163.719C48.5031 163.255 48.201 162.701 47.9875 162.055C47.7792 161.404 47.675 160.68 47.675 159.883V158.75C47.675 157.953 47.7792 157.232 47.9875 156.586C48.201 155.935 48.5057 155.378 48.9016 154.914C49.3026 154.451 49.7844 154.094 50.3469 153.844C50.9094 153.594 51.5422 153.469 52.2453 153.469C53.1047 153.469 53.8312 153.63 54.425 153.953C55.0187 154.276 55.4797 154.724 55.8078 155.297C56.1411 155.865 56.3469 156.523 56.425 157.273H54.925C54.8521 156.742 54.7167 156.286 54.5187 155.906C54.3208 155.521 54.0396 155.224 53.675 155.016C53.3104 154.807 52.8339 154.703 52.2453 154.703C51.7401 154.703 51.2948 154.799 50.9094 154.992C50.5292 155.185 50.2089 155.458 49.9484 155.812C49.6932 156.167 49.5005 156.591 49.3703 157.086C49.2401 157.581 49.175 158.13 49.175 158.734V159.883C49.175 160.44 49.2323 160.964 49.3469 161.453C49.4667 161.943 49.6464 162.372 49.8859 162.742C50.1255 163.112 50.4302 163.404 50.8 163.617C51.1698 163.826 51.6073 163.93 52.1125 163.93C52.7531 163.93 53.2635 163.828 53.6437 163.625C54.024 163.422 54.3104 163.13 54.5031 162.75C54.701 162.37 54.8417 161.914 54.925 161.383ZM62.9453 163.555V159.203C62.9453 158.87 62.8776 158.581 62.7422 158.336C62.612 158.086 62.4141 157.893 62.1484 157.758C61.8828 157.622 61.5547 157.555 61.1641 157.555C60.7995 157.555 60.4792 157.617 60.2031 157.742C59.9323 157.867 59.7188 158.031 59.5625 158.234C59.4115 158.438 59.3359 158.656 59.3359 158.891H57.8906C57.8906 158.589 57.9688 158.289 58.125 157.992C58.2812 157.695 58.5052 157.427 58.7969 157.188C59.0938 156.943 59.4479 156.75 59.8594 156.609C60.276 156.464 60.7396 156.391 61.25 156.391C61.8646 156.391 62.4062 156.495 62.875 156.703C63.349 156.911 63.7188 157.227 63.9844 157.648C64.2552 158.065 64.3906 158.589 64.3906 159.219V163.156C64.3906 163.438 64.4141 163.737 64.4609 164.055C64.513 164.372 64.5885 164.646 64.6875 164.875V165H63.1797C63.1068 164.833 63.0495 164.612 63.0078 164.336C62.9661 164.055 62.9453 163.794 62.9453 163.555ZM63.1953 159.875L63.2109 160.891H61.75C61.3385 160.891 60.9714 160.924 60.6484 160.992C60.3255 161.055 60.0547 161.151 59.8359 161.281C59.6172 161.411 59.4505 161.576 59.3359 161.773C59.2214 161.966 59.1641 162.193 59.1641 162.453C59.1641 162.719 59.224 162.961 59.3438 163.18C59.4635 163.398 59.6432 163.573 59.8828 163.703C60.1276 163.828 60.4271 163.891 60.7812 163.891C61.224 163.891 61.6146 163.797 61.9531 163.609C62.2917 163.422 62.5599 163.193 62.7578 162.922C62.9609 162.651 63.0703 162.388 63.0859 162.133L63.7031 162.828C63.6667 163.047 63.5677 163.289 63.4062 163.555C63.2448 163.82 63.0286 164.076 62.7578 164.32C62.4922 164.56 62.1745 164.76 61.8047 164.922C61.4401 165.078 61.0286 165.156 60.5703 165.156C59.9974 165.156 59.4948 165.044 59.0625 164.82C58.6354 164.596 58.3021 164.297 58.0625 163.922C57.8281 163.542 57.7109 163.117 57.7109 162.648C57.7109 162.195 57.7995 161.797 57.9766 161.453C58.1536 161.104 58.4089 160.815 58.7422 160.586C59.0755 160.352 59.4766 160.174 59.9453 160.055C60.4141 159.935 60.9375 159.875 61.5156 159.875H63.1953ZM69.9031 156.547V157.656H65.3328V156.547H69.9031ZM66.8797 154.492H68.325V162.906C68.325 163.193 68.3693 163.409 68.4578 163.555C68.5464 163.701 68.6609 163.797 68.8016 163.844C68.9422 163.891 69.0932 163.914 69.2547 163.914C69.3745 163.914 69.4995 163.904 69.6297 163.883C69.7651 163.857 69.8667 163.836 69.9344 163.82L69.9422 165C69.8276 165.036 69.6766 165.07 69.4891 165.102C69.3068 165.138 69.0854 165.156 68.825 165.156C68.4708 165.156 68.1453 165.086 67.8484 164.945C67.5516 164.805 67.3146 164.57 67.1375 164.242C66.9656 163.909 66.8797 163.461 66.8797 162.898V154.492ZM76.2828 163.555V159.203C76.2828 158.87 76.2151 158.581 76.0797 158.336C75.9495 158.086 75.7516 157.893 75.4859 157.758C75.2203 157.622 74.8922 157.555 74.5016 157.555C74.137 157.555 73.8167 157.617 73.5406 157.742C73.2698 157.867 73.0563 158.031 72.9 158.234C72.749 158.438 72.6734 158.656 72.6734 158.891H71.2281C71.2281 158.589 71.3063 158.289 71.4625 157.992C71.6188 157.695 71.8427 157.427 72.1344 157.188C72.4313 156.943 72.7854 156.75 73.1969 156.609C73.6135 156.464 74.0771 156.391 74.5875 156.391C75.2021 156.391 75.7438 156.495 76.2125 156.703C76.6865 156.911 77.0563 157.227 77.3219 157.648C77.5927 158.065 77.7281 158.589 77.7281 159.219V163.156C77.7281 163.438 77.7516 163.737 77.7984 164.055C77.8505 164.372 77.926 164.646 78.025 164.875V165H76.5172C76.4443 164.833 76.387 164.612 76.3453 164.336C76.3036 164.055 76.2828 163.794 76.2828 163.555ZM76.5328 159.875L76.5484 160.891H75.0875C74.676 160.891 74.3089 160.924 73.9859 160.992C73.663 161.055 73.3922 161.151 73.1734 161.281C72.9547 161.411 72.788 161.576 72.6734 161.773C72.5589 161.966 72.5016 162.193 72.5016 162.453C72.5016 162.719 72.5615 162.961 72.6813 163.18C72.801 163.398 72.9807 163.573 73.2203 163.703C73.4651 163.828 73.7646 163.891 74.1188 163.891C74.5615 163.891 74.9521 163.797 75.2906 163.609C75.6292 163.422 75.8974 163.193 76.0953 162.922C76.2984 162.651 76.4078 162.388 76.4234 162.133L77.0406 162.828C77.0042 163.047 76.9052 163.289 76.7438 163.555C76.5823 163.82 76.3661 164.076 76.0953 164.32C75.8297 164.56 75.512 164.76 75.1422 164.922C74.7776 165.078 74.3661 165.156 73.9078 165.156C73.3349 165.156 72.8323 165.044 72.4 164.82C71.9729 164.596 71.6396 164.297 71.4 163.922C71.1656 163.542 71.0484 163.117 71.0484 162.648C71.0484 162.195 71.137 161.797 71.3141 161.453C71.4911 161.104 71.7464 160.815 72.0797 160.586C72.413 160.352 72.8141 160.174 73.2828 160.055C73.7516 159.935 74.275 159.875 74.8531 159.875H76.5328ZM81.2719 153V165H79.8187V153H81.2719ZM82.9094 160.867V160.688C82.9094 160.078 82.9979 159.513 83.175 158.992C83.3521 158.466 83.6073 158.01 83.9406 157.625C84.274 157.234 84.6776 156.932 85.1516 156.719C85.6255 156.5 86.1568 156.391 86.7453 156.391C87.3391 156.391 87.8729 156.5 88.3469 156.719C88.826 156.932 89.2323 157.234 89.5656 157.625C89.9042 158.01 90.162 158.466 90.3391 158.992C90.5161 159.513 90.6047 160.078 90.6047 160.688V160.867C90.6047 161.477 90.5161 162.042 90.3391 162.562C90.162 163.083 89.9042 163.539 89.5656 163.93C89.2323 164.315 88.8286 164.617 88.3547 164.836C87.8859 165.049 87.3547 165.156 86.7609 165.156C86.1672 165.156 85.6333 165.049 85.1594 164.836C84.6854 164.617 84.2792 164.315 83.9406 163.93C83.6073 163.539 83.3521 163.083 83.175 162.562C82.9979 162.042 82.9094 161.477 82.9094 160.867ZM84.3547 160.688V160.867C84.3547 161.289 84.4042 161.688 84.5031 162.062C84.6021 162.432 84.7505 162.76 84.9484 163.047C85.1516 163.333 85.4042 163.56 85.7062 163.727C86.0083 163.888 86.3599 163.969 86.7609 163.969C87.1568 163.969 87.5031 163.888 87.8 163.727C88.1021 163.56 88.3521 163.333 88.55 163.047C88.7479 162.76 88.8964 162.432 88.9953 162.062C89.0995 161.688 89.1516 161.289 89.1516 160.867V160.688C89.1516 160.271 89.0995 159.878 88.9953 159.508C88.8964 159.133 88.7453 158.802 88.5422 158.516C88.3443 158.224 88.0943 157.995 87.7922 157.828C87.4953 157.661 87.1464 157.578 86.7453 157.578C86.3495 157.578 86.0005 157.661 85.6984 157.828C85.4016 157.995 85.1516 158.224 84.9484 158.516C84.7505 158.802 84.6021 159.133 84.5031 159.508C84.4042 159.878 84.3547 160.271 84.3547 160.688ZM97.5938 156.547H98.9062V164.82C98.9062 165.565 98.7552 166.201 98.4531 166.727C98.151 167.253 97.7292 167.651 97.1875 167.922C96.651 168.198 96.0312 168.336 95.3281 168.336C95.0365 168.336 94.6927 168.289 94.2969 168.195C93.9062 168.107 93.5208 167.953 93.1406 167.734C92.7656 167.521 92.4505 167.232 92.1953 166.867L92.9531 166.008C93.3073 166.435 93.6771 166.732 94.0625 166.898C94.4531 167.065 94.8385 167.148 95.2188 167.148C95.6771 167.148 96.0729 167.062 96.4062 166.891C96.7396 166.719 96.9974 166.464 97.1797 166.125C97.3672 165.792 97.4609 165.38 97.4609 164.891V158.406L97.5938 156.547ZM91.7734 160.867V160.703C91.7734 160.057 91.849 159.471 92 158.945C92.1562 158.414 92.3776 157.958 92.6641 157.578C92.9557 157.198 93.3073 156.906 93.7188 156.703C94.1302 156.495 94.5938 156.391 95.1094 156.391C95.6406 156.391 96.1042 156.484 96.5 156.672C96.901 156.854 97.2396 157.122 97.5156 157.477C97.7969 157.826 98.0182 158.247 98.1797 158.742C98.3411 159.237 98.4531 159.797 98.5156 160.422V161.141C98.4583 161.76 98.3464 162.318 98.1797 162.812C98.0182 163.307 97.7969 163.729 97.5156 164.078C97.2396 164.427 96.901 164.695 96.5 164.883C96.099 165.065 95.6302 165.156 95.0938 165.156C94.5885 165.156 94.1302 165.049 93.7188 164.836C93.3125 164.622 92.9635 164.323 92.6719 163.938C92.3802 163.552 92.1562 163.099 92 162.578C91.849 162.052 91.7734 161.482 91.7734 160.867ZM93.2188 160.703V160.867C93.2188 161.289 93.2604 161.685 93.3438 162.055C93.4323 162.424 93.5651 162.75 93.7422 163.031C93.9245 163.312 94.1562 163.534 94.4375 163.695C94.7188 163.852 95.0547 163.93 95.4453 163.93C95.9245 163.93 96.3203 163.828 96.6328 163.625C96.9453 163.422 97.1927 163.154 97.375 162.82C97.5625 162.487 97.7083 162.125 97.8125 161.734V159.852C97.7552 159.565 97.6667 159.289 97.5469 159.023C97.4323 158.753 97.2812 158.513 97.0938 158.305C96.9115 158.091 96.6849 157.922 96.4141 157.797C96.1432 157.672 95.8255 157.609 95.4609 157.609C95.0651 157.609 94.724 157.693 94.4375 157.859C94.1562 158.021 93.9245 158.245 93.7422 158.531C93.5651 158.812 93.4323 159.141 93.3438 159.516C93.2604 159.885 93.2188 160.281 93.2188 160.703Z" fill="#333333"/>
<circle cx="114" cy="160" r="7.5" stroke="#4C9EEB"/>
<path d="M140 161H121.5" stroke="#4C9EEB"/>
</svg>
