<svg width="511" height="430" viewBox="0 0 511 430" fill="none" xmlns="http://www.w3.org/2000/svg">
<path fill-rule="evenodd" clip-rule="evenodd" d="M358.916 36H484.948C498.507 36 509.5 47.0922 509.5 60.7751V369.225C509.5 382.908 498.507 394 484.948 394H358.916C345.356 394 334.364 382.908 334.364 369.225V60.7751C334.364 47.0922 345.356 36 358.916 36Z" fill="#444444"/>
<path fill-rule="evenodd" clip-rule="evenodd" d="M359.325 38.0646H484.539C497.194 38.0646 507.454 48.4173 507.454 61.188V368.812C507.454 381.583 497.194 391.935 484.539 391.935H359.325C346.669 391.935 336.41 381.583 336.41 368.812V61.188C336.41 48.4173 346.669 38.0646 359.325 38.0646Z" fill="#141414"/>
<rect x="506.635" y="70.4099" width="3.00077" height="2.75279" fill="#141414"/>
<rect x="334.364" y="70.4099" width="3.00077" height="2.75279" fill="#141414"/>
<rect x="506.635" y="356.7" width="3.00077" height="2.75279" fill="#141414"/>
<rect x="334.364" y="356.7" width="3.00077" height="2.75279" fill="#141414"/>
<path fill-rule="evenodd" clip-rule="evenodd" d="M403.927 52.5167C404.831 52.5167 405.564 51.7772 405.564 50.8651C405.564 49.9529 404.831 49.2134 403.927 49.2134C403.023 49.2134 402.29 49.9529 402.29 50.8651C402.29 51.7772 403.023 52.5167 403.927 52.5167Z" fill="#444444"/>
<path fill-rule="evenodd" clip-rule="evenodd" d="M441.846 53.6178C443.353 53.6178 444.574 52.3854 444.574 50.865C444.574 49.3447 443.353 48.1122 441.846 48.1122C440.339 48.1122 439.118 49.3447 439.118 50.865C439.118 52.3854 440.339 53.6178 441.846 53.6178Z" fill="#444444"/>
<path fill-rule="evenodd" clip-rule="evenodd" d="M412.93 49.7639H431.207C431.81 49.7639 432.298 50.2569 432.298 50.865C432.298 51.4731 431.81 51.9661 431.207 51.9661H412.93C412.327 51.9661 411.838 51.4731 411.838 50.865C411.838 50.2569 412.327 49.7639 412.93 49.7639Z" fill="#444444"/>
<path fill-rule="evenodd" clip-rule="evenodd" d="M333 110.599C333 110.296 333.293 110.05 333.656 110.05H334.637V136.201H333.656C333.294 136.201 333 135.955 333 135.652V110.599Z" fill="#444444"/>
<path fill-rule="evenodd" clip-rule="evenodd" d="M333 143.22C333 142.916 333.293 142.67 333.656 142.67H334.637V168.822H333.656C333.294 168.822 333 168.576 333 168.273V143.22Z" fill="#444444"/>
<path fill-rule="evenodd" clip-rule="evenodd" d="M333 84.9992C333 84.6953 333.293 84.449 333.656 84.449H334.637V98.7635H333.656C333.294 98.7635 333 98.518 333 98.2133V84.9992Z" fill="#444444"/>
<path fill-rule="evenodd" clip-rule="evenodd" d="M509.363 118.308H510.182C510.634 118.308 511 118.615 511 118.996V160.289C511 160.669 510.633 160.976 510.182 160.976H509.363V118.308Z" fill="#444444"/>
<path fill-rule="evenodd" clip-rule="evenodd" d="M360.279 47.1487C351.993 47.1487 345.276 53.919 345.276 62.2704V366.904C345.276 375.256 351.993 382.025 360.279 382.025H483.721C492.007 382.025 498.724 375.255 498.724 366.904V62.2704C498.724 53.9184 492.007 47.1487 483.721 47.1487H467.216V47.1544C467.171 47.1506 467.126 47.1487 467.08 47.1487C466.177 47.1487 465.446 47.885 465.443 48.7943L465.443 48.7994V48.9364L465.443 49.6232C465.443 55.0896 461.039 59.521 455.608 59.521H388.392C382.96 59.521 378.557 55.0908 378.557 49.6232V48.9364V48.7994C378.557 47.8878 377.824 47.1487 376.92 47.1487C376.874 47.1487 376.829 47.1506 376.784 47.1544V47.1487H360.279Z" fill="#212121"/>
<path fill-rule="evenodd" clip-rule="evenodd" d="M25.9157 36H151.948C165.507 36 176.5 47.0922 176.5 60.7751V369.225C176.5 382.908 165.507 394 151.948 394H25.9157C12.3562 394 1.36398 382.908 1.36398 369.225V60.7751C1.36398 47.0922 12.3562 36 25.9157 36Z" fill="#444444"/>
<path fill-rule="evenodd" clip-rule="evenodd" d="M26.3249 38.0646H151.539C164.194 38.0646 174.454 48.4173 174.454 61.188V368.812C174.454 381.583 164.194 391.935 151.539 391.935H26.3249C13.6693 391.935 3.40997 381.583 3.40997 368.812V61.188C3.40997 48.4173 13.6693 38.0646 26.3249 38.0646Z" fill="#141414"/>
<rect x="173.635" y="70.4099" width="3.00077" height="2.75279" fill="#141414"/>
<rect x="1.36398" y="70.4099" width="3.00077" height="2.75279" fill="#141414"/>
<rect x="173.635" y="356.7" width="3.00077" height="2.75279" fill="#141414"/>
<rect x="1.36398" y="356.7" width="3.00077" height="2.75279" fill="#141414"/>
<path fill-rule="evenodd" clip-rule="evenodd" d="M70.9272 52.5167C71.8312 52.5167 72.564 51.7772 72.564 50.8651C72.564 49.9529 71.8312 49.2134 70.9272 49.2134C70.0232 49.2134 69.2904 49.9529 69.2904 50.8651C69.2904 51.7772 70.0232 52.5167 70.9272 52.5167Z" fill="#444444"/>
<path fill-rule="evenodd" clip-rule="evenodd" d="M108.846 53.6178C110.353 53.6178 111.574 52.3854 111.574 50.865C111.574 49.3447 110.353 48.1122 108.846 48.1122C107.339 48.1122 106.118 49.3447 106.118 50.865C106.118 52.3854 107.339 53.6178 108.846 53.6178Z" fill="#444444"/>
<path fill-rule="evenodd" clip-rule="evenodd" d="M79.9295 49.7639H98.2069C98.8095 49.7639 99.2981 50.2569 99.2981 50.865C99.2981 51.4731 98.8095 51.9661 98.2069 51.9661H79.9295C79.3269 51.9661 78.8383 51.4731 78.8383 50.865C78.8383 50.2569 79.3269 49.7639 79.9295 49.7639Z" fill="#444444"/>
<path fill-rule="evenodd" clip-rule="evenodd" d="M0 110.599C0 110.296 0.292624 110.05 0.656311 110.05H1.63678V136.201H0.656311C0.29384 136.201 0 135.955 0 135.652V110.599Z" fill="#444444"/>
<path fill-rule="evenodd" clip-rule="evenodd" d="M0 143.22C0 142.916 0.292624 142.67 0.656311 142.67H1.63678V168.822H0.656311C0.29384 168.822 0 168.576 0 168.273V143.22Z" fill="#444444"/>
<path fill-rule="evenodd" clip-rule="evenodd" d="M0 84.9992C0 84.6953 0.292624 84.449 0.656311 84.449H1.63678V98.7635H0.656311C0.29384 98.7635 0 98.518 0 98.2133V84.9992Z" fill="#444444"/>
<path fill-rule="evenodd" clip-rule="evenodd" d="M176.363 118.308H177.182C177.634 118.308 178 118.615 178 118.996V160.289C178 160.669 177.633 160.976 177.182 160.976H176.363V118.308Z" fill="#444444"/>
<path fill-rule="evenodd" clip-rule="evenodd" d="M27.2795 47.1487C18.9928 47.1487 12.2758 53.919 12.2758 62.2704V366.904C12.2758 375.256 18.9932 382.025 27.2795 382.025H150.721C159.007 382.025 165.724 375.255 165.724 366.904V62.2704C165.724 53.9184 159.007 47.1487 150.721 47.1487H134.216V47.1544C134.171 47.1506 134.126 47.1487 134.08 47.1487C133.177 47.1487 132.446 47.885 132.443 48.7943L132.443 48.7994V48.9364L132.443 49.6232C132.443 55.0896 128.039 59.521 122.608 59.521H55.3919C49.9603 59.521 45.5571 55.0908 45.5571 49.6232V48.9364V48.7994C45.5571 47.8878 44.8245 47.1487 43.9203 47.1487C43.8744 47.1487 43.8289 47.1506 43.7839 47.1544V47.1487H27.2795Z" fill="#212121"/>
<path fill-rule="evenodd" clip-rule="evenodd" d="M179.303 0H331.533C347.911 0 361.188 13.323 361.188 29.7578V400.242C361.188 416.677 347.911 430 331.533 430H179.303C162.925 430 149.647 416.677 149.647 400.242V29.7578C149.647 13.323 162.925 0 179.303 0Z" fill="#444444"/>
<path fill-rule="evenodd" clip-rule="evenodd" d="M179.797 2.4798H331.038C346.325 2.4798 358.716 14.9146 358.716 30.2537V399.746C358.716 415.085 346.325 427.52 331.038 427.52H179.797C164.511 427.52 152.119 415.085 152.119 399.746V30.2537C152.119 14.9146 164.511 2.4798 179.797 2.4798Z" fill="#141414"/>
<rect x="357.728" y="41.3303" width="3.62452" height="3.30642" fill="#141414"/>
<rect x="149.647" y="41.3303" width="3.62452" height="3.30642" fill="#141414"/>
<rect x="357.728" y="385.198" width="3.62452" height="3.30642" fill="#141414"/>
<rect x="149.647" y="385.198" width="3.62452" height="3.30642" fill="#141414"/>
<path fill-rule="evenodd" clip-rule="evenodd" d="M233.67 19.8385C234.762 19.8385 235.648 18.9503 235.648 17.8546C235.648 16.759 234.762 15.8708 233.67 15.8708C232.579 15.8708 231.693 16.759 231.693 17.8546C231.693 18.9503 232.579 19.8385 233.67 19.8385Z" fill="#444444"/>
<path fill-rule="evenodd" clip-rule="evenodd" d="M279.471 21.1611C281.291 21.1611 282.766 19.6807 282.766 17.8546C282.766 16.0286 281.291 14.5482 279.471 14.5482C277.651 14.5482 276.176 16.0286 276.176 17.8546C276.176 19.6807 277.651 21.1611 279.471 21.1611Z" fill="#444444"/>
<path fill-rule="evenodd" clip-rule="evenodd" d="M244.544 16.532H266.621C267.349 16.532 267.939 17.1242 267.939 17.8546C267.939 18.585 267.349 19.1772 266.621 19.1772H244.544C243.816 19.1772 243.226 18.585 243.226 17.8546C243.226 17.1242 243.816 16.532 244.544 16.532Z" fill="#444444"/>
<path fill-rule="evenodd" clip-rule="evenodd" d="M148 89.6024C148 89.238 148.353 88.9427 148.793 88.9427H149.977V120.354H148.793C148.355 120.354 148 120.058 148 119.694V89.6024Z" fill="#444444"/>
<path fill-rule="evenodd" clip-rule="evenodd" d="M148 128.783C148 128.419 148.353 128.124 148.793 128.124H149.977V159.535H148.793C148.355 159.535 148 159.239 148 158.875V128.783Z" fill="#444444"/>
<path fill-rule="evenodd" clip-rule="evenodd" d="M148 58.8538C148 58.4888 148.353 58.1929 148.793 58.1929H149.977V75.3863H148.793C148.355 75.3863 148 75.0915 148 74.7255V58.8538Z" fill="#444444"/>
<path fill-rule="evenodd" clip-rule="evenodd" d="M361.023 98.8619H362.011C362.557 98.8619 363 99.2306 363 99.6877V149.286C363 149.742 362.556 150.111 362.011 150.111H361.023V98.8619Z" fill="#444444"/>
<path fill-rule="evenodd" clip-rule="evenodd" d="M180.95 13.3909C170.941 13.3909 162.828 21.5228 162.828 31.5539V397.454C162.828 407.486 170.941 415.617 180.95 415.617H330.05C340.059 415.617 348.172 407.485 348.172 397.454V31.5539C348.172 21.5221 340.059 13.3909 330.05 13.3909H310.115V13.3977C310.061 13.3932 310.006 13.3909 309.95 13.3909C308.861 13.3909 307.977 14.2744 307.973 15.3657L307.973 15.3736V15.5381L307.973 16.363C307.973 22.9289 302.654 28.2515 296.094 28.2515H214.906C208.345 28.2515 203.027 22.9303 203.027 16.363V15.5381V15.3736C203.027 14.2786 202.142 13.3909 201.05 13.3909C200.994 13.3909 200.939 13.3932 200.885 13.3977V13.3909H180.95Z" fill="#212121"/>
</svg>
